#!OML:ASF I:\Actors\actors\Patient Classification 1\Patient 1\Session 1\Subject1.ASF
:FULLY-SPECIFIED
:DEGREES
712
root 0.832172 17.4455 8.38261 40.9603 35.893 -12.2496
lowerback 27.1219 -1.17123 -0.933286
upperback 10.9634 -1.48082 -1.76711
thorax -2.81796 -0.592653 -0.973935
lowerneck -0.266662 3.07518 -8.53705
upperneck 4.20499 4.03562 5.06638
head 1.09393 1.94816 3.16599
rclavicle 3.97569e-014 2.98177e-014
rhumerus 40.6582 34.1246 -34.6983
rradius 102.499
rwrist 12.4241
rhand 2.64723 -39.0871
rfingers 7.12502
rthumb 28.1234 -66.9982
lclavicle 3.97569e-014 2.98177e-014
lhumerus 12.2408 -19.4704 36.1303
lradius 105.548
lwrist 4.27872
lhand -21.1484 -7.79485
lfingers 7.12502
lthumb 5.23109 22.1206
rfemur -36.8156 24.9437 12.4304
rtibia -2.9018
rfoot -46.6994 -46.6213
rtoes 40.6774
lfemur -52.9561 -30.7491 36.0425
ltibia -8.92187
lfoot -7.80959 38.6027
ltoes 19.4898
713
root 0.828448 17.4461 8.38273 40.8126 35.9137 -12.2724
lowerback 27.1362 -1.1484 -0.895753
upperback 10.885 -1.44678 -1.73283
thorax -2.91172 -0.576868 -0.966858
lowerneck -0.44239 3.08921 -8.62696
upperneck 4.01499 4.06839 5.3135
head 1.05507 1.97239 3.2688
rclavicle 3.18055e-015 5.48646e-014
rhumerus 40.479 34.3271 -34.7405
rradius 102.576
rwrist 12.4829
rhand 3.07222 -38.8242
rfingers 7.12502
rthumb 28.5296 -66.6679
lclavicle 3.18055e-015 5.48646e-014
lhumerus 12.6241 -19.8971 35.8093
lradius 104.63
lwrist 4.24756
lhand -22.0501 -8.29041
lfingers 7.12502
lthumb 4.36038 21.6447
rfemur -36.65 25.0109 12.5042
rtibia -2.93113
rfoot -46.7864 -46.5927
rtoes 40.7502
lfemur -52.8369 -30.853 36.0088
ltibia -8.92178
lfoot -7.80314 38.5625
ltoes 19.1468
714
root 0.826233 17.4478 8.38107 40.6784 35.9778 -12.2254
lowerback 27.2253 -1.11957 -0.89995
upperback 10.7834 -1.41354 -1.65345
thorax -3.06418 -0.563155 -0.885631
lowerneck -0.499917 3.06299 -8.44752
upperneck 3.72986 4.0437 5.26913
head 0.979114 1.96775 3.21574
rclavicle -6.36111e-014 -1.55052e-014
rhumerus 40.2404 34.4827 -34.7668
rradius 102.646
rwrist 12.525
rhand 3.06446 -38.9616
rfingers 7.12502
rthumb 28.5222 -66.8065
lclavicle -6.36111e-014 -1.55052e-014
lhumerus 12.9696 -20.4305 35.5749
lradius 103.396
lwrist 4.41401
lhand -23.1285 -10.6708
lfingers 7.12502
lthumb 3.31896 19.2831
rfemur -36.4418 24.9873 12.5474
rtibia -2.96595
rfoot -46.9128 -46.5449
rtoes 40.8272
lfemur -52.8273 -31.0324 35.9796
ltibia -8.86919
lfoot -7.68863 38.5496
ltoes 18.6344
715
root 0.823475 17.448 8.3795 40.5831 35.9741 -12.2471
lowerback 27.2166 -1.04849 -0.971364
upperback 10.6625 -1.3427 -1.53519
thorax -3.1892 -0.534867 -0.735244
lowerneck -0.441264 3.02722 -8.2232
upperneck 3.38405 4.00101 5.0498
head 0.868793 1.95152 3.09076
rclavicle 1.74931e-014 -9.93923e-016
rhumerus 40.0456 34.6695 -34.7482
rradius 102.753
rwrist 12.497
rhand 3.09473 -39.103
rfingers 7.12502
rthumb 28.5511 -66.943
lclavicle 1.74931e-014 -9.93923e-016
lhumerus 13.2275 -21.0486 35.4154
lradius 102.678
lwrist 3.37852
lhand -24.1323 -9.47526
lfingers 7.12502
lthumb 2.34958 20.4915
rfemur -36.3738 25.0525 12.5647
rtibia -2.93381
rfoot -47.0599 -46.4952
rtoes 40.8455
lfemur -52.7413 -31.0898 35.935
ltibia -8.86247
lfoot -7.80168 38.5212
ltoes 18.7187
716
root 0.824397 17.4489 8.3758 40.5344 35.9972 -12.1897
lowerback 27.1876 -0.987827 -1.03114
upperback 10.5709 -1.2774 -1.38294
thorax -3.27213 -0.509201 -0.553408
lowerneck -0.461491 2.97933 -8.16979
upperneck 3.11212 3.94638 4.95076
head 0.791935 1.92847 3.04299
rclavicle -1.11319e-014 7.21588e-014
rhumerus 39.8709 34.7691 -34.7296
rradius 102.819
rwrist 12.6043
rhand 3.28716 -39.1044
rfingers 7.12502
rthumb 28.7349 -66.9134
lclavicle -1.11319e-014 7.21588e-014
lhumerus 13.5082 -21.676 35.3919
lradius 101.549
lwrist 2.48614
lhand -25.566 -9.53019
lfingers 7.12502
lthumb 0.964899 20.4474
rfemur -36.2878 25.0208 12.5122
rtibia -2.95066
rfoot -47.0982 -46.5007
rtoes 40.823
lfemur -52.7807 -31.1992 35.8819
ltibia -8.79025
lfoot -8.04882 38.5057
ltoes 18.953
717
root 0.821241 17.4484 8.37335 40.5124 35.9697 -12.2119
lowerback 27.0468 -0.860218 -1.15738
upperback 10.4736 -1.14364 -1.2121
thorax -3.30698 -0.453357 -0.334059
lowerneck -0.429094 2.90938 -8.06631
upperneck 2.84977 3.85755 4.81665
head 0.712919 1.88779 2.97321
rclavicle -1.27222e-014 -7.4743e-014
rhumerus 39.6854 34.774 -34.7546
rradius 102.864
rwrist 12.7108
rhand 3.34882 -39.0528
rfingers 7.12502
rthumb 28.7938 -66.8518
lclavicle -1.27222e-014 -7.4743e-014
lhumerus 13.858 -22.3887 35.3193
lradius 100.122
lwrist 2.15322
lhand -27.4599 -10.1745
lfingers 7.12502
lthumb -0.864282 19.8035
rfemur -36.3269 25.0859 12.4716
rtibia -2.92265
rfoot -47.1126 -46.4962
rtoes 40.8926
lfemur -52.7232 -31.1744 35.844
ltibia -8.80299
lfoot -8.14823 38.5435
ltoes 18.8191
718
root 0.81993 17.4507 8.37002 40.3699 36.0266 -12.2116
lowerback 27.1644 -0.823717 -1.09729
upperback 10.3436 -1.08749 -1.13552
thorax -3.50686 -0.426746 -0.299219
lowerneck 0.187647 2.75264 -7.94025
upperneck 1.55731 3.62768 4.42694
head 0.219023 1.78506 2.78905
rclavicle -2.38542e-014 2.98177e-014
rhumerus 39.4424 34.8222 -34.9919
rradius 102.934
rwrist 12.8638
rhand 3.32432 -39.2078
rfingers 7.12502
rthumb 28.7704 -67.0108
lclavicle -2.38542e-014 2.98177e-014
lhumerus 14.3116 -23.25 34.9657
lradius 98.2807
lwrist 2.55556
lhand -29.708 -11.6861
lfingers 7.12502
lthumb -3.03547 18.272
rfemur -36.1969 25.0689 12.5058
rtibia -2.88579
rfoot -47.118 -46.5063
rtoes 40.8545
lfemur -52.6705 -31.3357 35.8213
ltibia -8.78297
lfoot -8.20645 38.567
ltoes 18.803
719
root 0.820188 17.4544 8.3632 40.2347 36.1077 -12.1125
lowerback 27.3653 -0.792354 -1.0196
upperback 10.2104 -1.03344 -1.06459
thorax -3.75013 -0.400015 -0.279572
lowerneck 0.330452 2.67922 -7.96273
upperneck 1.32696 3.52226 4.51248
head 0.125963 1.73504 2.81809
rclavicle 3.18055e-015 -2.10712e-014
rhumerus 39.1291 34.8196 -35.2919
rradius 102.984
rwrist 13.2216
rhand 3.25857 -39.5035
rfingers 7.12502
rthumb 28.7076 -67.3172
lclavicle 3.18055e-015 -2.10712e-014
lhumerus 14.9946 -24.2039 34.5843
lradius 95.8908
lwrist 3.38662
lhand -32.1456 -14.0853
lfingers 7.12502
lthumb -5.38935 15.8262
rfemur -36.0158 24.9545 12.4772
rtibia -2.83806
rfoot -47.1167 -46.5308
rtoes 40.7034
lfemur -52.7002 -31.579 35.771
ltibia -8.73788
lfoot -8.30688 38.5645
ltoes 19.076
720
root 0.818307 17.4561 8.35681 40.1417 36.0911 -12.0611
lowerback 27.3532 -0.613862 -1.18886
upperback 10.1566 -0.841488 -0.841667
thorax -3.79769 -0.316336 0.00452381
lowerneck 0.12038 2.62761 -8.19027
upperneck 1.6717 3.46262 4.76558
head 0.267379 1.70232 2.95471
rclavicle 7.95139e-014 -9.54166e-015
rhumerus 38.9401 34.6415 -35.3455
rradius 102.96
rwrist 13.7018
rhand 3.04814 -39.8837
rfingers 7.12502
rthumb 28.5066 -67.7313
lclavicle 7.95139e-014 -9.54166e-015
lhumerus 15.9326 -25.1155 34.3696
lradius 93.3107
lwrist 4.65475
lhand -34.9006 -15.6013
lfingers 7.12502
lthumb -8.0488 14.2255
rfemur -35.9395 24.9605 12.4165
rtibia -2.77938
rfoot -47.1671 -46.5222
rtoes 40.6549
lfemur -52.6254 -31.6878 35.6705
ltibia -8.76218
lfoot -8.38679 38.5663
ltoes 19.3142
721
root 0.816915 17.4563 8.35056 40.033 36.1273 -12.0517
lowerback 27.2584 -0.471003 -1.26046
upperback 10.1955 -0.663476 -0.602119
thorax -3.70678 -0.238168 0.253962
lowerneck -0.258263 2.54062 -8.52094
upperneck 2.10134 3.36917 5.01548
head 0.467591 1.65276 3.11534
rclavicle -1.74931e-014 1.11319e-014
rhumerus 38.9567 34.3456 -35.3204
rradius 102.809
rwrist 14.3163
rhand 2.60297 -40.3825
rfingers 7.12502
rthumb 28.0811 -68.3006
lclavicle -1.74931e-014 1.11319e-014
lhumerus 16.98 -26.0011 33.9871
lradius 91.0614
lwrist 6.85821
lhand -38.4773 -15.0491
lfingers 7.12502
lthumb -11.4996 14.6155
rfemur -35.8398 24.9647 12.4335
rtibia -2.76073
rfoot -47.2626 -46.4989
rtoes 40.6751
lfemur -52.6062 -31.7802 35.6546
ltibia -8.73946
lfoot -8.2355 38.547
ltoes 18.9574
